<?xml version="1.0" encoding="utf-8"?>
<!-- Svg Vector Icons : http://www.onlinewebfonts.com/icon -->
<!DOCTYPE svg PUBLIC "-//W3C//DTD SVG 1.1//EN" "http://www.w3.org/Graphics/SVG/1.1/DTD/svg11.dtd">
<svg version="1.1" xmlns="http://www.w3.org/2000/svg" xmlns:xlink="http://www.w3.org/1999/xlink" x="0px" y="0px" viewBox="0 0 1000 1000" enable-background="new 0 0 1000 1000" xml:space="preserve">
<metadata> Svg Vector Icons : http://www.onlinewebfonts.com/icon </metadata>
<g><g><path d="M879.2,546.3c-1.6-1.6-129.9-140.2-176.3-319.9c14.2,6.4,29.8,10.2,46.4,10.2c62.4,0,113.3-50.8,113.3-113.3C862.5,60.8,811.7,10,749.3,10c-58,0-105.4,44-112,100.2c-1.5,2.6-2.8,5.4-3.4,8.5c-0.4,2.2-3.2,18.8-4.2,46.7H617V35.3c0-14-11.3-25.3-25.3-25.3c-14,0-25.3,11.3-25.3,25.3v130.1h-42.3V35.3c0-14-11.3-25.3-25.3-25.3c-14,0-25.3,11.3-25.3,25.3v130.1h-39.9V35.3c0-14-11.3-25.3-25.3-25.3c-14,0-25.3,11.3-25.3,25.3v130.1h-15.3c-0.9-27.8-3.7-44.5-4.2-46.7c0-0.1-0.1-0.1-0.1-0.2C360.9,58.3,311.5,10,250.7,10c-62.4,0-113.3,50.8-113.3,113.3c0,62.5,50.8,113.3,113.3,113.3c16.5,0,32.2-3.7,46.4-10.2c-46.4,179.7-174.8,318.3-176.7,320.3C77,595,54,650.9,54,708.5C54,871.6,241.6,990,500,990s446-118.4,446-281.5C946,651,923,595,879.2,546.3z M630.4,216c4.2,76.4,24.3,192.1,93.9,326.9c16.2,31.5,49.9,113,51.7,137.5c2.1,30.4-8.1,58-30.5,82c-27.8,29.8-72,51.3-128.4,63.5V216H630.4z M566.4,216v617.7c-14.8,1.6-30.2,2.6-46.2,3.1c2.2-3.7,3.8-7.9,3.8-12.6V216H566.4z M473.4,216v608.2c0,4.7,1.6,8.8,3.8,12.6c-15.1-0.5-29.7-1.4-43.7-2.8V216H473.4z M382.9,826.5c-57.7-12.1-102.7-33.8-130.9-64.1c-22.4-24-32.6-51.6-30.5-82c1.7-24.5,35.4-106,51.6-137.5c69.6-134.8,89.7-250.5,93.9-326.9h15.8L382.9,826.5L382.9,826.5z"/></g><g></g><g></g><g></g><g></g><g></g><g></g><g></g><g></g><g></g><g></g><g></g><g></g><g></g><g></g><g></g></g>
</svg>