<?xml version="1.0" standalone="no"?>
<!DOCTYPE svg PUBLIC "-//W3C//DTD SVG 20010904//EN"
 "http://www.w3.org/TR/2001/REC-SVG-20010904/DTD/svg10.dtd">
<svg version="1.0" xmlns="http://www.w3.org/2000/svg"
 width="512.000000pt" height="512.000000pt" viewBox="0 0 512.000000 512.000000"
 preserveAspectRatio="xMidYMid meet">
<metadata>
Created by potrace 1.11, written by Peter Selinger 2001-2013
</metadata>
<g transform="translate(0.000000,512.000000) scale(0.100000,-0.100000)"
fill="#000000" stroke="none">
<path d="M2486 5079 c-45 -11 -96 -45 -96 -65 0 -8 -4 -14 -10 -14 -5 0 -10
-7 -10 -15 0 -8 -4 -15 -10 -15 -5 0 -10 -13 -10 -30 0 -16 -5 -30 -12 -30 -6
0 -9 -3 -5 -6 3 -3 -4 -15 -15 -26 -16 -16 -35 -21 -78 -22 -32 -1 -56 -4 -53
-8 2 -4 -10 -6 -26 -4 -17 2 -31 -1 -31 -6 0 -6 -11 -8 -25 -6 -13 3 -26 2
-27 -3 -3 -7 -65 -21 -105 -22 -13 -1 -23 -5 -23 -10 0 -5 -6 -7 -14 -4 -8 3
-16 2 -18 -2 -2 -4 -16 -11 -31 -15 -22 -5 -27 -4 -22 6 4 7 1 6 -7 -2 -12
-14 -91 -49 -121 -54 -6 -1 -18 -6 -26 -10 -11 -7 -13 -5 -8 8 4 10 3 15 -3
11 -6 -3 -10 -12 -10 -20 0 -18 -32 -28 -42 -13 -6 11 -8 10 -8 0 0 -7 -5 -10
-12 -6 -7 4 -8 3 -4 -4 8 -13 -24 -32 -54 -32 -13 0 -19 -4 -14 -12 4 -7 3 -8
-5 -4 -6 4 -18 0 -26 -8 -9 -8 -22 -13 -31 -9 -9 3 -14 0 -12 -8 2 -8 -2 -13
-9 -12 -6 1 -16 -4 -23 -12 -6 -7 -19 -11 -27 -8 -11 4 -14 2 -9 -5 4 -7 1
-12 -8 -12 -9 0 -16 -4 -16 -9 0 -12 -56 -31 -65 -23 -4 4 -5 0 -3 -8 2 -8 -3
-14 -9 -13 -7 2 -13 -1 -13 -7 0 -5 -10 -14 -21 -21 -17 -9 -20 -8 -13 3 4 7
-7 -2 -25 -20 -19 -18 -39 -31 -47 -28 -7 3 -18 -3 -26 -12 -12 -15 -11 -16 4
-3 10 7 18 9 18 3 0 -16 -33 -24 -42 -10 -6 9 -7 5 -3 -9 4 -16 2 -23 -7 -23
-8 0 -20 -9 -28 -20 -10 -14 -16 -16 -22 -7 -5 8 -8 6 -8 -6 0 -10 -5 -15 -10
-12 -6 4 -7 11 -4 17 4 7 2 8 -4 4 -9 -5 -9 -13 0 -29 10 -20 10 -21 -6 -8
-14 12 -16 12 -10 -3 4 -11 1 -16 -11 -16 -10 0 -13 -5 -9 -12 4 -6 3 -8 -4
-4 -5 3 -12 0 -15 -6 -3 -10 -8 -9 -22 2 -10 8 -16 10 -12 4 4 -7 0 -17 -9
-24 -8 -7 -13 -19 -10 -27 7 -17 -10 -17 -18 0 -4 6 -4 2 -2 -10 2 -13 -3 -28
-13 -35 -14 -11 -14 -11 -4 3 13 17 -2 35 -49 60 -38 20 -77 56 -70 64 4 5 2
5 -5 2 -6 -4 -20 3 -30 15 -10 13 -29 24 -43 26 -59 6 -120 6 -120 0 0 -4 -10
-10 -22 -14 -13 -4 -36 -17 -53 -29 -35 -26 -138 -75 -157 -75 -8 0 -18 -4
-24 -10 -5 -5 -18 -11 -29 -13 -21 -4 -45 -12 -80 -27 -11 -5 -46 -17 -77 -26
-44 -13 -58 -22 -63 -41 -3 -15 -10 -21 -18 -16 -7 4 -5 -2 3 -12 14 -17 13
-18 -4 -12 -16 6 -17 5 -6 -8 15 -18 0 -20 -20 -2 -12 10 -12 9 -2 -4 9 -12 8
-22 -4 -44 -8 -16 -12 -26 -8 -22 4 4 13 2 20 -4 9 -7 18 -4 35 13 22 24 17 6
-8 -23 -11 -13 -11 -16 2 -16 8 0 13 3 10 5 -3 3 4 12 16 20 11 8 23 11 26 8
4 -3 1 -6 -6 -6 -7 0 -9 -5 -6 -11 5 -7 14 -4 28 8 22 18 22 18 4 -3 -22 -26
-22 -41 0 -23 9 8 14 9 10 2 -4 -6 -1 -13 5 -16 9 -3 5 -13 -12 -33 -14 -16
-18 -23 -9 -16 13 10 18 10 21 0 3 -7 3 -19 1 -26 -4 -10 -8 -10 -19 -1 -12
10 -13 9 -8 -5 3 -9 11 -16 16 -16 6 0 7 -7 4 -16 -3 -8 -2 -23 3 -33 7 -13 6
-18 -4 -18 -7 0 -11 6 -8 13 2 6 -1 15 -8 20 -8 4 -10 3 -5 -5 4 -6 2 -19 -5
-27 -7 -8 -8 -14 -3 -13 20 3 31 -2 31 -16 0 -11 -4 -12 -14 -3 -7 6 -16 8
-20 4 -3 -3 -1 -6 5 -6 7 0 12 -5 12 -11 0 -5 -6 -7 -12 -3 -10 6 -10 5 -1 -8
7 -8 10 -18 6 -21 -3 -4 -1 -13 5 -20 7 -8 9 -17 5 -21 -4 -4 -1 -12 7 -17 13
-9 13 -10 0 -6 -8 2 -14 12 -13 22 1 11 -2 14 -9 7 -7 -7 -6 -18 3 -33 7 -13
12 -30 10 -38 -1 -8 2 -10 10 -5 8 4 10 3 5 -5 -6 -8 -12 -9 -20 -2 -9 8 -13
7 -13 -4 0 -8 6 -16 13 -19 8 -3 11 -12 7 -22 -5 -13 -3 -15 8 -9 10 6 9 3 -2
-11 -9 -10 -15 -27 -14 -37 2 -9 0 -15 -4 -13 -4 3 -13 -5 -21 -17 -12 -20
-12 -21 3 -8 10 7 17 10 18 5 0 -5 2 -17 4 -26 2 -10 -1 -18 -7 -18 -6 0 -8 7
-4 15 8 22 -2 18 -15 -6 -7 -13 -7 -19 -1 -15 6 3 13 2 17 -4 3 -5 -2 -10 -11
-10 -10 0 -14 -3 -10 -7 4 -5 13 -8 18 -8 6 0 13 -6 16 -12 2 -7 -1 -13 -8
-13 -6 0 -9 4 -6 8 2 4 -4 8 -15 8 -18 0 -18 -2 -5 -12 9 -6 13 -14 9 -18 -10
-10 -11 -56 -1 -50 4 3 8 -2 8 -11 0 -9 -4 -14 -9 -10 -5 3 -13 0 -17 -6 -4
-8 -3 -9 4 -5 6 3 16 -3 22 -14 6 -11 8 -20 5 -20 -3 0 -1 -8 4 -18 7 -14 6
-19 -4 -19 -7 0 -11 6 -9 12 3 6 -2 12 -10 12 -8 0 -13 -4 -10 -9 3 -5 7 -22
9 -39 3 -21 1 -28 -8 -23 -9 5 -9 3 1 -7 16 -17 16 -32 -1 -23 -9 5 -9 3 1 -7
11 -12 14 -12 21 0 7 10 9 7 8 -11 -2 -22 -5 -24 -20 -16 -16 8 -17 7 -5 -11
6 -11 16 -17 22 -14 5 3 6 1 2 -5 -3 -6 0 -17 9 -25 13 -13 13 -16 -1 -21 -10
-4 -13 -2 -8 6 4 7 3 8 -4 4 -6 -4 -9 -13 -5 -21 3 -9 -1 -23 -8 -33 -11 -14
-9 -13 9 2 23 20 31 9 10 -12 -7 -7 -8 -12 -2 -12 6 0 15 5 21 11 9 9 11 7 9
-7 -2 -11 -8 -19 -14 -19 -6 0 -14 -4 -19 -9 -5 -5 -3 -6 5 -2 11 6 17 -5 13
-26 0 -5 4 -8 9 -8 6 0 10 7 8 16 -2 10 4 19 12 21 9 3 11 1 4 -4 -7 -5 -8
-19 -2 -40 6 -24 13 -31 26 -27 9 3 6 -2 -8 -11 l-25 -16 30 6 c21 4 26 3 15
-4 -16 -11 -21 -69 -6 -78 5 -3 6 -1 2 5 -4 7 -2 12 4 12 7 0 10 -6 7 -14 -3
-7 0 -19 6 -27 7 -7 0 -5 -15 4 -16 10 -28 13 -28 7 0 -5 4 -10 8 -10 13 0 11
-34 -2 -42 -8 -5 -7 -8 2 -8 6 0 12 -5 12 -11 0 -5 -6 -7 -13 -3 -7 5 -7 1 3
-12 8 -10 16 -21 17 -23 2 -2 1 10 -1 27 -2 17 0 29 5 27 6 -4 6 -42 0 -64 0
-2 -11 4 -23 15 -14 12 -18 13 -10 3 6 -9 9 -19 5 -22 -3 -4 1 -7 10 -7 11 0
14 -5 10 -17 -5 -12 -3 -14 8 -9 8 4 5 0 -5 -8 -11 -9 -16 -16 -11 -16 5 0 0
-7 -11 -15 -16 -13 -16 -14 -1 -9 9 3 17 1 17 -5 0 -6 -6 -11 -12 -11 -7 0 0
-8 15 -19 23 -15 25 -20 13 -24 -10 -4 -14 -15 -12 -29 3 -13 5 -23 6 -23 1 0
3 -8 5 -17 2 -10 0 -18 -4 -18 -18 0 -5 -33 16 -41 12 -5 23 -11 23 -13 0 -7
-31 4 -46 16 -7 5 -17 1 -25 -9 -13 -16 -12 -17 3 -4 15 11 18 11 18 -1 0 -8
-6 -20 -12 -27 -10 -11 -10 -13 0 -7 6 4 12 2 12 -4 0 -7 6 -8 19 0 20 10 24
-2 8 -27 -4 -6 -4 -18 -1 -27 3 -9 1 -16 -5 -16 -6 0 -10 3 -9 8 3 13 -13 52
-22 52 -5 0 -12 -5 -16 -12 -4 -6 -3 -8 4 -4 17 10 32 -25 20 -47 -7 -14 -7
-17 1 -13 6 4 19 2 28 -4 17 -11 17 -11 1 -6 -10 3 -17 1 -15 -4 1 -5 -7 -16
-18 -24 -19 -15 -19 -16 -1 -9 13 4 17 3 12 -5 -4 -7 -2 -12 5 -12 8 0 7 -5
-2 -17 -13 -16 -12 -17 3 -5 10 8 14 20 11 29 -4 10 -2 14 5 9 6 -3 13 -2 17
4 3 5 -2 10 -11 10 -10 0 -15 3 -11 6 3 4 13 4 22 0 14 -5 14 -8 -1 -31 -15
-23 -13 -30 8 -26 5 0 7 -5 5 -12 -1 -6 4 -11 12 -9 9 2 7 -8 -8 -31 -23 -37
-27 -52 -11 -42 6 4 7 -1 3 -11 -5 -14 -3 -15 18 -5 21 11 22 10 7 -2 -10 -8
-14 -17 -10 -21 4 -4 1 -6 -7 -4 -7 2 -15 -5 -16 -15 -2 -9 1 -15 6 -11 5 3 7
8 5 12 -2 4 8 8 22 8 15 1 21 -1 14 -3 -10 -4 -10 -8 0 -21 12 -15 11 -16 -5
-3 -9 8 -19 12 -20 10 -1 -2 -9 -12 -17 -22 -10 -14 -11 -17 0 -15 7 2 15 -3
18 -11 3 -10 0 -11 -9 -5 -11 6 -12 5 -2 -7 10 -12 10 -18 0 -29 -9 -11 -7
-10 7 0 18 14 19 13 12 -5 -6 -16 -5 -17 5 -8 9 9 9 16 1 25 -7 9 -7 18 1 29
11 15 14 14 30 -8 12 -16 14 -23 5 -21 -7 2 -12 -5 -12 -14 1 -10 -2 -16 -6
-13 -4 3 -11 -2 -14 -11 -3 -8 -2 -12 4 -9 6 3 10 2 10 -4 0 -6 6 -8 14 -5 8
3 17 1 21 -5 3 -7 0 -8 -9 -5 -18 7 -16 -21 4 -39 10 -10 12 -9 7 4 -3 9 0 16
7 16 6 0 12 -8 12 -18 0 -10 -3 -17 -6 -16 -3 1 -7 -3 -8 -8 -2 -6 -8 -16 -14
-22 -13 -16 4 -17 20 -1 9 9 15 9 24 -1 11 -10 10 -11 -2 -6 -10 4 -16 -1 -16
-12 -1 -10 -4 -26 -9 -35 -4 -11 -3 -18 5 -18 6 0 9 4 6 9 -3 5 1 14 9 21 10
9 15 9 15 1 0 -6 -4 -11 -9 -11 -5 0 -8 -8 -6 -17 2 -10 4 -20 4 -23 1 -3 6 2
11 10 6 9 10 10 10 3 0 -16 -17 -26 -25 -13 -3 5 -12 10 -18 10 -7 0 -4 -5 6
-11 9 -6 15 -14 12 -20 -10 -15 7 -10 29 9 20 16 20 16 6 -2 -16 -21 -22 -46
-10 -46 5 0 10 6 13 13 2 6 2 1 0 -13 -3 -14 -10 -28 -16 -32 -11 -7 4 -13 26
-9 4 0 7 -6 7 -15 0 -8 -4 -13 -8 -10 -5 3 -9 -1 -9 -9 0 -20 6 -19 26 7 14
16 20 18 26 8 5 -8 4 -11 -3 -6 -6 3 -14 -4 -18 -16 -13 -38 -13 -47 -1 -45 7
1 11 -4 9 -11 -1 -8 2 -11 8 -7 8 5 8 11 1 19 -6 7 -7 17 -3 21 4 5 0 4 -8 0
-13 -8 -13 -6 -1 8 7 9 17 14 23 11 5 -3 4 -12 -3 -20 -6 -8 -9 -15 -5 -15 3
-1 10 -2 15 -3 5 0 13 -5 18 -9 4 -5 2 -7 -6 -5 -7 2 -16 -3 -18 -10 -3 -7 1
-11 8 -10 7 2 18 -8 25 -21 7 -13 18 -28 26 -33 10 -8 9 -8 -4 -4 -25 8 -22 0
10 -32 15 -15 18 -19 6 -8 -13 10 -29 16 -36 13 -8 -4 -7 -6 5 -6 9 -1 22 -12
29 -26 6 -13 14 -22 18 -20 5 3 11 -2 14 -11 4 -10 2 -13 -7 -8 -7 5 -6 1 3
-10 8 -10 15 -24 16 -32 1 -7 9 -21 18 -30 9 -8 14 -20 10 -25 -11 -19 29 -22
42 -4 17 23 18 12 3 -17 -10 -18 -9 -20 6 -14 14 5 15 4 7 -7 -24 -29 21 -43
54 -17 16 13 17 13 9 0 -5 -8 -11 -23 -12 -34 -3 -15 0 -16 11 -7 10 9 16 8
25 -3 8 -9 9 -16 2 -21 -7 -4 -7 -12 2 -25 13 -23 33 -26 40 -7 4 9 6 9 6 0 1
-7 -8 -17 -19 -23 -11 -6 -20 -16 -20 -23 0 -7 4 -6 10 3 5 8 10 11 10 6 0 -5
8 -2 18 5 13 10 12 8 -3 -10 -11 -14 -15 -21 -8 -18 6 4 14 3 18 -3 3 -5 -2
-10 -11 -10 -27 0 -10 -11 22 -14 16 -2 32 -4 37 -5 4 0 7 -6 7 -12 0 -8 -4
-8 -14 0 -11 9 -16 9 -22 0 -5 -8 -3 -9 6 -4 10 6 12 4 7 -7 -3 -10 0 -15 11
-14 9 0 16 -5 15 -12 -2 -6 2 -12 7 -12 14 0 13 13 -2 28 -7 7 -8 12 -2 12 6
0 16 -11 22 -25 15 -32 15 -38 0 -29 -7 4 -8 3 -4 -4 4 -6 14 -8 24 -5 15 6
16 5 2 -13 -11 -15 -11 -16 0 -7 20 18 35 16 20 -2 -15 -18 -7 -19 22 -4 15 8
19 8 14 0 -4 -6 -2 -11 3 -11 6 0 11 -5 11 -11 0 -8 -4 -8 -14 0 -10 8 -16 9
-21 1 -4 -6 -1 -9 7 -8 7 2 12 -3 10 -10 -1 -8 2 -11 8 -7 5 3 10 -2 11 -12 0
-15 2 -15 7 -3 4 9 14 15 22 15 8 -1 20 3 27 7 7 6 14 4 19 -4 4 -7 4 -10 -1
-6 -4 4 -14 1 -21 -7 -16 -16 -19 -29 -4 -20 6 3 10 2 10 -4 0 -5 9 -8 20 -6
12 2 18 0 15 -6 -4 -5 -11 -7 -16 -4 -5 4 -9 1 -9 -4 0 -15 23 -14 38 1 9 9
13 7 18 -5 3 -9 10 -15 14 -12 5 3 6 -4 3 -15 -3 -11 -10 -20 -15 -20 -6 0 -7
7 -4 16 3 8 2 12 -4 9 -6 -3 -7 2 -4 12 5 16 3 15 -11 -2 -9 -11 -21 -19 -26
-18 -13 4 -11 -3 7 -17 8 -8 14 -9 13 -4 -4 24 2 26 17 6 12 -18 18 -19 28 -9
8 6 11 17 8 22 -3 6 2 4 11 -4 11 -9 15 -22 12 -35 -5 -17 -3 -17 9 4 l16 25
-3 -25 c-1 -14 -6 -28 -10 -31 -5 -3 -1 -9 8 -12 9 -4 14 -3 11 2 -3 5 1 12
10 15 24 9 29 7 16 -6 -23 -23 -14 -28 47 -29 18 -1 21 -3 10 -10 -11 -7 -11
-9 4 -9 9 0 17 -5 17 -11 0 -5 -4 -8 -9 -4 -5 3 -12 1 -15 -4 -7 -11 13 -9 33
3 10 7 12 6 6 -4 -6 -10 -4 -12 9 -7 14 6 16 3 11 -16 -7 -22 -7 -22 8 -2 8
11 13 24 10 29 -4 5 -1 6 6 1 9 -5 10 -10 2 -18 -6 -6 -11 -16 -11 -22 1 -5
10 1 22 15 13 15 19 18 15 8 -19 -49 -19 -53 2 -29 25 28 28 16 4 -19 -9 -14
-10 -20 -3 -13 10 9 18 8 38 -5 19 -12 24 -13 18 -3 -6 9 -5 12 2 7 6 -3 13
-2 17 4 8 13 25 13 25 0 0 -5 -5 -9 -11 -7 -6 1 -13 -2 -15 -8 -2 -5 7 -11 21
-11 14 -1 23 1 20 5 -2 4 2 8 10 8 13 0 13 -3 0 -17 -14 -16 -14 -18 -1 -23 9
-4 18 -1 22 5 5 7 2 8 -7 3 -11 -7 -11 -5 1 11 8 10 15 20 16 22 1 2 2 -9 3
-23 3 -51 4 -55 15 -46 18 13 46 21 46 12 0 -4 -10 -13 -22 -20 -14 -7 -16 -9
-5 -6 10 3 25 5 33 5 9 0 12 5 8 12 -4 6 -3 8 3 5 6 -4 9 -18 8 -32 -2 -14 1
-27 5 -30 5 -3 7 3 5 13 -2 10 1 25 7 33 8 11 9 10 4 -4 -3 -9 -1 -17 5 -17 6
0 7 -4 4 -10 -3 -5 0 -7 8 -4 8 3 18 1 21 -5 9 -13 36 -2 36 14 0 8 4 16 8 19
5 3 8 -5 8 -17 -1 -17 4 -21 22 -20 12 2 22 -2 22 -7 0 -6 3 -9 8 -9 20 3 32
-2 32 -16 0 -21 27 -19 39 2 9 15 10 12 7 -12 -2 -16 -1 -24 1 -18 3 9 10 10
23 3 14 -8 21 -6 28 6 8 15 10 15 15 0 4 -10 13 -13 24 -10 15 5 15 4 3 -4
-10 -8 -18 -8 -27 0 -9 7 -13 7 -13 -1 0 -6 6 -11 13 -11 8 0 7 -4 -3 -10 -23
-15 -7 -12 28 5 22 12 29 21 25 33 -3 9 -3 14 1 11 11 -10 16 -50 5 -44 -5 4
-9 1 -9 -5 0 -7 8 -9 20 -5 14 4 19 2 17 -7 -2 -7 -2 -10 0 -5 8 13 23 7 24
-10 0 -12 2 -13 6 -5 4 10 10 10 29 -3 24 -15 24 -15 12 4 -7 11 -14 18 -16
16 -3 -2 -17 2 -33 11 -31 16 -40 27 -13 17 9 -3 20 0 25 8 8 11 9 10 7 -5 -2
-15 4 -20 30 -22 17 -1 32 2 32 7 0 5 5 9 11 9 8 0 7 -5 -1 -15 -7 -9 -11 -16
-9 -18 39 -22 50 -27 44 -18 -3 6 -2 11 4 11 5 0 11 -5 13 -12 3 -7 7 -5 11 6
5 12 3 15 -6 11 -6 -4 -4 0 5 8 10 8 14 18 10 22 -4 5 -1 5 6 1 7 -4 9 -12 6
-18 -11 -18 -13 -59 -3 -52 5 3 7 8 5 12 -2 4 3 16 11 27 15 19 15 19 8 -5
l-8 -25 23 20 c13 11 20 14 15 6 -5 -9 -3 -12 6 -9 8 3 14 10 14 16 0 5 3 14
7 18 4 3 5 -3 3 -15 -3 -18 0 -21 15 -16 20 6 37 -10 20 -20 -5 -3 -10 -1 -10
5 0 6 -5 8 -10 5 -15 -9 -12 -24 4 -21 8 1 22 8 32 16 16 14 16 13 5 -10 -11
-23 -11 -23 3 -6 14 17 42 14 31 -4 -3 -5 0 -12 6 -16 7 -4 9 -3 6 3 -4 6 0
16 8 23 12 10 15 9 15 -6 0 -16 2 -17 10 -4 9 14 14 7 11 -13 -1 -5 8 -2 21 7
17 12 25 13 37 3 12 -10 13 -9 6 2 -6 11 -4 13 8 8 11 -4 14 -2 11 7 -3 8 0
17 7 22 7 4 10 3 5 -4 -4 -7 1 -10 14 -9 15 1 19 6 15 22 -5 18 -5 18 5 2 6
-9 8 -22 5 -27 -3 -6 1 -7 9 -4 9 3 13 11 9 17 -4 6 -1 7 7 2 10 -6 12 -4 6
11 -5 14 -4 16 4 8 6 -6 13 -20 15 -30 2 -11 4 -21 4 -23 1 -2 7 2 14 8 8 6
17 8 21 4 4 -4 4 1 0 11 -5 14 -4 17 4 12 7 -4 12 -14 12 -22 0 -16 16 -19 25
-4 9 15 48 13 39 -3 -6 -9 -4 -9 7 1 16 15 33 16 24 2 -9 -14 16 -8 33 8 7 6
25 10 39 7 15 -2 31 -1 37 3 6 3 22 8 36 9 14 2 30 4 37 5 6 1 9 7 6 14 -2 6
1 15 8 20 8 4 10 3 5 -4 -4 -7 -2 -12 4 -12 6 0 8 -5 4 -12 -5 -7 -3 -8 5 -4
7 5 10 14 7 22 -3 8 -1 14 3 14 15 0 20 -27 8 -41 -10 -11 -9 -11 4 -1 9 6 20
8 25 4 4 -4 2 1 -5 11 -7 9 -10 17 -6 17 4 0 2 6 -4 14 -10 12 -9 14 6 12 10
-2 21 2 25 8 6 8 8 8 8 -1 0 -7 12 -9 33 -6 30 4 31 4 12 -10 -15 -11 -22 -12
-27 -4 -5 8 -8 7 -8 -3 0 -12 -2 -12 -9 -2 -6 10 -10 10 -20 -2 -10 -12 -7
-14 21 -12 18 2 40 -2 48 -8 13 -10 13 -9 1 7 -7 9 -9 17 -4 17 5 0 18 7 29
16 10 8 13 13 7 9 -9 -4 -11 -1 -6 11 4 10 8 13 10 7 3 -7 11 -9 19 -6 7 3 11
10 7 16 -3 6 -1 7 6 3 6 -4 9 -11 6 -16 -3 -5 -1 -11 5 -15 6 -4 7 -11 4 -17
-4 -6 -2 -8 4 -5 5 4 8 16 5 26 -3 10 1 22 8 26 8 5 10 4 5 -3 -4 -7 -2 -12 4
-12 6 0 8 -5 4 -12 -6 -10 -5 -10 8 -1 8 7 17 11 20 8 2 -3 5 2 5 10 0 18 -13
20 -20 3 -3 -7 -4 -3 -4 9 1 17 5 20 18 12 11 -5 20 -5 23 0 4 5 0 12 -6 15
-7 3 -3 3 9 0 14 -3 25 1 32 13 6 11 11 13 11 5 0 -7 5 -10 12 -6 7 4 8 3 4
-5 -4 -6 -12 -8 -18 -5 -7 5 -8 2 -3 -6 5 -8 4 -11 -1 -7 -17 10 -34 -7 -24
-23 8 -12 10 -12 10 4 0 11 3 16 7 13 3 -4 12 -2 19 4 8 6 20 9 27 6 8 -3 14
1 14 9 0 7 -3 11 -7 9 -4 -2 -7 3 -7 12 0 13 4 12 17 -5 17 -20 18 -20 34 -3
11 12 12 21 6 27 -7 7 -6 11 4 11 8 0 13 -4 10 -9 -5 -8 10 -12 35 -9 8 2 10
-3 5 -11 -4 -8 -3 -10 2 -5 5 5 9 14 9 20 0 7 10 11 22 11 12 -1 21 3 20 9 -1
6 4 12 11 13 6 1 14 3 17 4 3 1 10 3 15 4 6 0 15 8 20 16 8 12 12 13 19 2 7
-11 9 -11 14 1 3 7 1 20 -4 28 -5 9 -9 10 -9 2 0 -6 -9 -15 -20 -18 -11 -4
-18 -10 -15 -15 6 -10 -21 -7 -32 4 -4 4 -1 6 7 4 8 -2 14 2 13 9 -2 7 3 10
11 7 7 -3 19 2 26 10 7 9 16 14 20 11 5 -3 11 -1 15 5 4 7 12 7 26 0 10 -6 19
-8 19 -4 0 3 8 0 18 -7 14 -11 15 -11 5 0 -12 14 -7 41 9 41 5 0 7 -4 3 -9 -3
-5 -1 -12 4 -15 5 -3 7 7 6 23 -2 21 1 28 11 24 8 -3 11 -10 7 -17 -4 -7 -1
-7 9 1 8 7 18 10 21 7 3 -4 4 5 1 20 -2 15 0 26 6 26 6 0 8 -4 5 -10 -3 -6 4
-10 17 -9 13 0 17 3 11 6 -7 2 -13 9 -13 14 0 6 9 5 21 -1 11 -7 23 -9 27 -6
3 3 0 6 -7 6 -7 0 -9 5 -5 12 4 6 3 8 -4 4 -6 -3 -13 -2 -16 3 -4 5 6 8 21 6
18 -2 36 4 50 17 13 12 27 17 35 12 10 -6 10 -4 -1 9 -8 10 -12 18 -10 20 2 1
20 16 39 32 19 17 29 23 22 14 -10 -14 -10 -18 2 -22 9 -4 18 -1 22 5 5 7 2 8
-6 3 -8 -5 -11 -4 -7 3 15 24 57 0 52 -30 -3 -11 -2 -18 1 -15 3 3 17 -1 31
-8 15 -8 30 -12 35 -9 7 5 13 -18 9 -39 -1 -5 3 -6 9 -2 6 3 8 11 5 16 -11 16
7 10 22 -8 14 -17 14 -17 9 0 -3 11 -2 16 4 12 14 -9 12 -33 -2 -37 -7 -3 -5
-7 6 -11 10 -4 15 -3 11 3 -3 6 -1 10 5 10 6 0 8 5 4 12 -4 7 -3 8 4 4 6 -4 8
-14 5 -23 -5 -12 -2 -15 9 -10 23 8 29 -2 16 -27 -10 -19 -10 -20 5 -8 14 12
17 10 23 -12 6 -27 59 -50 92 -40 15 5 14 4 -1 -6 -22 -14 -12 -33 14 -25 13
4 19 2 19 -9 0 -10 9 -16 22 -16 21 0 21 -1 3 -13 -14 -11 -15 -16 -5 -22 7
-4 16 -2 20 5 5 8 10 9 14 2 3 -6 -3 -14 -15 -17 -20 -7 -20 -7 -2 -20 10 -7
28 -15 38 -17 11 -1 23 -7 26 -11 3 -5 22 -4 42 1 20 6 36 7 36 4 -4 -27 3
-34 30 -30 17 2 28 1 25 -3 -2 -4 4 -7 15 -6 11 0 17 5 14 11 -4 5 1 7 12 2
15 -5 16 -4 6 8 -11 13 -9 15 8 11 12 -2 19 0 16 6 -4 5 0 12 8 15 7 2 14 10
15 17 6 50 7 86 3 84 -10 -3 -59 51 -53 57 3 3 1 6 -4 6 -5 0 -11 12 -12 27
-3 44 -34 66 -89 67 -47 0 -70 11 -75 37 -5 20 -45 59 -63 59 -8 0 -15 4 -15
10 0 5 -3 9 -8 7 -14 -4 -131 77 -125 88 4 5 3 7 -1 3 -13 -11 -62 12 -87 40
-16 17 -17 21 -5 12 18 -14 19 -14 6 10 -7 14 -9 22 -5 18 4 -4 14 0 22 10 8
9 12 12 9 6 -8 -15 21 -26 30 -12 4 7 3 8 -4 4 -21 -13 -13 29 8 47 23 20 34
22 24 5 -4 -6 -3 -8 4 -4 6 3 9 15 7 26 -2 12 0 18 6 14 15 -9 49 25 42 42 -3
9 1 14 12 14 9 0 14 4 11 8 -3 5 6 21 20 38 14 16 23 24 20 17 -4 -6 -2 -14 3
-17 5 -4 8 5 6 20 -2 17 2 24 11 20 8 -3 11 0 7 10 -3 10 0 12 10 8 8 -3 18 0
22 6 3 6 3 10 -2 9 -19 -3 -23 2 -11 15 8 8 17 10 24 5 7 -5 9 2 8 23 -2 23 3
32 17 35 13 4 18 11 14 20 -3 10 -1 13 8 10 8 -3 20 -1 28 5 11 8 10 9 -3 4
-22 -7 -23 7 -2 28 9 9 17 23 18 32 1 8 16 24 32 36 16 11 22 18 13 15 -13 -4
-15 -1 -12 14 3 10 10 19 15 19 5 0 6 -5 2 -12 -4 -7 -3 -8 4 -4 6 4 8 14 5
24 -6 15 -5 15 10 3 15 -12 17 -12 11 3 -3 9 -11 16 -18 16 -8 0 -8 2 0 8 6 4
16 17 23 30 6 12 19 22 29 22 10 0 13 3 7 8 -13 9 -12 20 5 54 11 23 16 26 29
16 13 -11 13 -9 -1 7 -14 17 -14 23 -4 37 7 10 15 15 18 12 3 -2 3 7 0 21 -3
19 -1 24 10 20 9 -4 15 0 15 9 0 8 -5 12 -11 9 -6 -4 -5 1 3 10 7 9 10 17 7
17 -4 0 -1 10 6 22 7 13 11 26 10 30 -1 5 3 8 9 8 5 0 7 5 4 10 -3 6 2 10 12
10 15 0 16 2 3 11 -11 7 -12 12 -3 15 7 3 10 11 7 19 -3 7 -1 16 5 20 6 3 11
11 11 16 0 6 -4 7 -10 4 -6 -3 -7 1 -4 9 3 9 9 16 13 16 4 0 8 6 9 13 4 38 15
93 21 102 4 6 7 17 6 25 0 8 6 21 15 28 10 9 11 11 1 6 -11 -6 -13 -1 -6 27 4
19 8 42 8 52 1 9 4 17 7 17 4 0 5 16 4 35 -2 19 1 37 6 40 5 3 7 17 4 31 -3
17 -1 23 7 19 8 -6 8 -2 0 12 -6 11 -8 23 -5 26 3 3 5 80 5 172 -1 121 2 172
11 183 10 13 10 14 1 8 -14 -8 -14 -5 -17 76 0 27 -4 48 -7 48 -4 0 -6 18 -5
40 1 22 -2 40 -7 40 -5 0 -7 13 -5 29 2 17 0 27 -4 24 -5 -3 -8 1 -7 8 2 8 -3
41 -11 74 -7 33 -13 66 -13 73 0 6 -5 12 -10 12 -5 0 -3 8 4 17 10 11 10 14 2
9 -7 -4 -13 -4 -14 1 0 4 -3 17 -5 28 -3 11 -6 26 -6 33 -1 6 -5 12 -9 12 -5
0 -6 7 -3 15 4 8 2 15 -3 15 -5 0 -10 12 -11 26 -1 14 -5 31 -9 37 -18 28 -19
80 -2 105 9 15 10 15 5 -2 -5 -14 -3 -17 11 -11 10 4 23 8 30 9 7 1 16 6 20
11 4 4 3 5 -4 1 -6 -3 -15 -1 -19 6 -4 7 -3 10 1 5 5 -4 19 0 33 9 20 13 26
14 33 3 7 -11 9 -10 9 4 0 10 7 20 15 23 18 7 43 55 39 77 -1 9 1 17 5 17 13
0 5 53 -12 86 -12 24 -31 37 -79 55 -35 13 -65 24 -68 25 -16 3 -47 19 -62 32
-10 8 -18 12 -18 7 0 -4 -15 4 -34 19 -19 14 -37 26 -41 26 -6 0 -22 12 -53
40 -15 14 -50 18 -77 10 -14 -4 -45 10 -45 21 0 9 -20 36 -55 73 -11 11 -31
38 -45 58 -13 20 -28 34 -32 32 -4 -3 -8 0 -8 6 0 7 -23 34 -51 61 -28 27 -48
49 -44 49 4 0 -8 12 -27 27 -18 15 -45 40 -61 55 -15 15 -32 28 -37 28 -6 0
-10 4 -10 8 0 5 -20 23 -45 41 -25 18 -43 37 -39 42 3 5 2 8 -3 7 -12 -4 -83
40 -83 52 0 5 -3 9 -7 8 -12 -3 -74 34 -100 59 -13 12 -23 20 -23 17 0 -7 -94
48 -102 61 -4 5 -8 7 -8 2 0 -4 -29 8 -64 28 -35 19 -71 35 -80 35 -9 0 -16 4
-16 8 0 5 -19 15 -42 22 -24 8 -47 16 -53 20 -5 4 -29 12 -52 20 -24 7 -43 16
-43 19 0 3 -14 7 -32 8 -17 1 -34 6 -37 10 -3 5 -19 9 -36 11 -16 2 -35 8 -42
14 -7 5 -18 8 -25 5 -7 -2 -22 0 -33 6 -19 10 -31 12 -93 16 -13 0 -21 5 -18
10 3 4 -6 7 -20 5 -21 -2 -29 6 -51 49 -15 29 -26 56 -25 60 1 5 -2 6 -8 2 -5
-3 -10 1 -10 10 0 9 -4 14 -9 10 -5 -3 -12 4 -16 15 -3 11 -10 20 -15 20 -5 0
-19 4 -32 9 -13 5 -27 9 -32 9 -5 0 -12 4 -15 9 -6 9 -55 33 -81 40 -32 9
-147 10 -184 2z m-1491 -809 c4 -6 1 -9 -7 -8 -7 2 -12 -3 -10 -10 1 -8 -2
-11 -8 -7 -8 5 -7 11 1 21 14 17 16 17 24 4z m-290 -148 c1 -4 4 -17 9 -30 l7
-22 20 22 c18 21 35 16 29 -8 -1 -4 4 -10 10 -14 8 -5 7 -9 -3 -13 -11 -4 -15
0 -12 13 5 26 -11 35 -18 11 -6 -24 10 -41 32 -35 9 2 1 -3 -16 -11 -21 -10
-33 -22 -33 -35 0 -11 -5 -20 -11 -20 -5 0 -8 4 -4 9 3 5 1 12 -4 15 -11 7 -9
-13 3 -33 7 -10 6 -12 -4 -6 -10 6 -12 4 -6 -10 6 -16 4 -16 -11 -4 -12 10
-15 10 -9 1 5 -8 -2 -16 -23 -23 -17 -6 -28 -15 -25 -20 3 -5 0 -10 -5 -10
-20 -3 -26 -5 -48 -17 -13 -7 -23 -10 -23 -6 0 3 -7 1 -15 -6 -8 -7 -15 -9
-15 -5 0 4 -6 3 -12 -2 -18 -14 -41 -12 -56 4 -7 7 -9 13 -4 13 4 0 9 21 9 48
2 109 6 132 22 119 12 -10 13 -9 1 13 -7 14 -9 22 -5 18 5 -4 15 -2 24 5 14
11 15 10 1 -7 -10 -13 -11 -17 -2 -12 7 4 19 2 27 -4 11 -9 15 -9 15 -1 0 6
-5 11 -11 11 -6 0 -9 6 -6 13 2 6 10 11 17 9 7 -1 18 2 25 8 10 9 19 6 34 -9
16 -16 20 -17 25 -5 3 9 1 12 -4 9 -6 -3 -10 -1 -10 4 0 6 7 11 15 11 8 0 15
-5 15 -11 0 -5 4 -8 10 -4 5 3 7 13 4 23 -5 14 -4 14 4 2 6 -8 9 -17 6 -21 -2
-4 2 -12 10 -18 10 -9 12 -4 11 25 -2 19 0 32 4 29 3 -4 6 -10 6 -13z m115
-38 c0 -8 -19 -13 -24 -6 -3 5 1 9 9 9 8 0 15 -2 15 -3z m-738 -33 c-7 -4 -12
-12 -11 -17 3 -18 -1 -25 -11 -19 -13 8 6 45 23 45 9 0 8 -3 -1 -9z m88 -325
c0 -3 -4 -8 -10 -11 -5 -3 -10 -1 -10 4 0 6 5 11 10 11 6 0 10 -2 10 -4z m291
-139 c-10 -9 -11 -8 -5 6 3 10 9 15 12 12 3 -3 0 -11 -7 -18z m-312 -271 c0
-7 -2 -6 -6 2 -2 6 -8 10 -12 8 -4 -3 -8 1 -8 9 0 11 4 12 14 4 7 -6 13 -17
12 -23z m-9 -136 c0 -5 -5 -10 -11 -10 -5 0 -7 5 -4 10 3 6 8 10 11 10 2 0 4
-4 4 -10z m10 -24 c0 -2 -7 -7 -16 -10 -8 -3 -12 -2 -9 4 6 10 25 14 25 6z
m60 -281 c0 -5 -5 -3 -10 5 -5 8 -10 20 -10 25 0 6 5 3 10 -5 5 -8 10 -19 10
-25z m31 -92 c13 -17 13 -17 -6 -3 -11 8 -22 16 -24 17 -2 2 0 3 6 3 6 0 17
-8 24 -17z m9 -77 c0 -3 -4 -8 -10 -11 -5 -3 -10 -1 -10 4 0 6 5 11 10 11 6 0
10 -2 10 -4z m-19 -149 c-6 -8 -7 -18 -3 -22 4 -5 1 -5 -6 -1 -10 6 -10 11 -1
22 6 8 14 14 16 14 3 0 0 -6 -6 -13z m14 -47 c3 -6 -1 -7 -9 -4 -18 7 -21 14
-7 14 6 0 13 -4 16 -10z m-1 -76 c3 -8 2 -12 -4 -9 -6 3 -10 10 -10 16 0 14 7
11 14 -7z m-14 -114 c0 -5 -5 -10 -11 -10 -5 0 -7 5 -4 10 3 6 8 10 11 10 2 0
4 -4 4 -10z m60 -260 c0 -5 -5 -10 -11 -10 -5 0 -7 5 -4 10 3 6 8 10 11 10 2
0 4 -4 4 -10z m0 -120 c0 -5 -2 -10 -4 -10 -3 0 -8 5 -11 10 -3 6 -1 10 4 10
6 0 11 -4 11 -10z m157 -373 c0 -7 -9 -13 -19 -13 -18 0 -18 1 -2 13 10 7 18
13 19 13 1 0 2 -6 2 -13z m77 -133 c3 -8 2 -12 -4 -9 -6 3 -10 10 -10 16 0 14
7 11 14 -7z m44 -76 c-2 -7 3 -12 10 -10 8 1 11 -2 7 -8 -5 -8 -11 -7 -21 1
-16 13 -18 29 -4 29 6 0 9 -6 8 -12z m30 -73 c-3 -3 -9 2 -12 12 -6 14 -5 15
5 6 7 -7 10 -15 7 -18z m36 -24 c-8 -9 -44 -11 -44 -3 0 4 11 8 25 8 13 0 22
-2 19 -5z m-24 -29 c0 -5 13 -7 30 -6 16 1 28 -2 25 -6 -3 -4 -14 -6 -25 -3
-16 4 -19 2 -14 -11 3 -9 9 -14 13 -11 4 2 8 -2 8 -10 0 -8 -7 -15 -14 -15 -8
0 -12 4 -9 9 3 5 -4 20 -15 35 -11 14 -16 26 -10 26 6 0 11 -4 11 -8z m100
-68 c0 -8 -19 -13 -24 -6 -3 5 1 9 9 9 8 0 15 -2 15 -3z m-10 -34 c-8 -5 -19
-10 -25 -10 -5 0 -3 5 5 10 8 5 20 10 25 10 6 0 3 -5 -5 -10z m100 -86 c0 -8
-19 -13 -24 -6 -3 5 1 9 9 9 8 0 15 -2 15 -3z m3500 -29 c-7 -9 -15 -13 -19
-10 -3 3 1 10 9 15 21 14 24 12 10 -5z m-3453 -41 c-3 -3 -12 -4 -19 -1 -8 3
-5 6 6 6 11 1 17 -2 13 -5z m86 -99 c-3 -9 -8 -14 -10 -11 -3 3 -2 9 2 15 9
16 15 13 8 -4z m32 -25 c3 -6 -1 -7 -9 -4 -18 7 -21 14 -7 14 6 0 13 -4 16
-10z m65 -52 c0 -4 -4 -8 -9 -8 -6 0 -12 4 -15 8 -3 5 1 9 9 9 8 0 15 -4 15
-9z m3034 -124 c3 -8 2 -12 -4 -9 -6 3 -10 10 -10 16 0 14 7 11 14 -7z m-181
-35 c-15 -16 -22 -18 -28 -8 -5 7 -4 10 2 6 5 -3 16 3 23 13 8 11 16 17 19 14
3 -2 -4 -14 -16 -25z m-2682 -2 c-10 -9 -11 -8 -5 6 3 10 9 15 12 12 3 -3 0
-11 -7 -18z m84 -17 c3 -5 1 -10 -4 -10 -6 0 -11 5 -11 10 0 6 2 10 4 10 3 0
8 -4 11 -10z m-25 -20 c0 -5 -7 -7 -15 -4 -8 4 -15 8 -15 10 0 2 7 4 15 4 8 0
15 -4 15 -10z m2505 -30 c3 -5 1 -10 -4 -10 -6 0 -11 5 -11 10 0 6 2 10 4 10
3 0 8 -4 11 -10z m-83 -49 c8 11 9 11 6 1 -4 -16 -22 -18 -24 -2 -2 7 -1 6 3
-1 4 -8 8 -7 15 2z m603 -20 c-6 -5 -25 10 -25 20 0 5 6 4 14 -3 8 -7 12 -15
11 -17z m-2841 -11 c-21 -8 -37 -3 -29 10 3 4 15 6 27 2 21 -5 21 -6 2 -12z
m2086 -49 c0 -5 -7 -14 -15 -21 -8 -7 -15 -9 -15 -5 0 4 -6 3 -13 -3 -8 -7
-18 -7 -27 -2 -11 7 -11 10 -2 11 6 1 16 2 22 3 5 0 15 7 22 14 14 14 28 16
28 3z m-120 -62 c0 -5 -4 -9 -8 -9 -5 0 -9 7 -9 15 0 8 4 12 9 9 4 -3 8 -9 8
-15z m-1715 3 c-3 -3 1 -12 8 -20 11 -13 9 -14 -10 -1 -27 16 -29 26 -8 26 8
0 13 -3 10 -5z m129 -28 c3 -8 2 -12 -4 -9 -6 3 -10 10 -10 16 0 14 7 11 14
-7z m87 -51 c13 -16 12 -17 -3 -4 -17 13 -22 21 -14 21 2 0 10 -8 17 -17z
m194 -23 c3 -5 1 -10 -4 -10 -6 0 -11 5 -11 10 0 6 2 10 4 10 3 0 8 -4 11 -10z
m855 -20 c-12 -16 -24 -30 -26 -30 -3 0 4 14 16 30 12 17 24 30 26 30 3 0 -4
-13 -16 -30z m-782 -16 c-12 -12 -17 -13 -23 -3 -5 8 -4 10 4 5 6 -4 14 0 17
9 4 9 9 13 12 10 3 -3 -1 -13 -10 -21z m750 6 c-7 -11 -15 -15 -17 -9 -2 6 3
15 10 20 20 12 21 11 7 -11z m-563 -18 c-3 -3 -11 0 -18 7 -9 10 -8 11 6 5 10
-3 15 -9 12 -12z m75 -6 c0 5 5 2 10 -6 9 -13 10 -13 10 0 0 12 2 13 9 1 5 -7
14 -10 21 -6 9 6 9 9 -1 16 -8 5 -9 9 -3 9 6 0 17 -7 24 -15 7 -8 10 -15 6
-15 -13 0 -22 -2 -36 -10 -9 -5 -23 -3 -34 6 -13 9 -23 10 -31 4 -9 -7 -16 -6
-25 4 -10 13 -8 15 10 11 17 -3 21 0 16 13 -5 14 -3 13 9 -2 8 -11 15 -16 15
-10z m350 9 c9 5 11 4 6 -3 -4 -7 -2 -12 3 -12 6 0 11 5 11 11 0 5 5 7 10 4 6
-3 10 -1 10 4 0 6 5 11 12 11 26 0 -22 -33 -49 -35 -23 -1 -29 3 -31 19 -1 15
1 17 7 7 5 -8 14 -10 21 -6z m-60 -1 c0 -3 -7 -12 -15 -20 -16 -17 -18 -14 -9
10 6 15 24 23 24 10z m165 -4 c-3 -5 -10 -10 -16 -10 -5 0 -9 5 -9 10 0 6 7
10 16 10 8 0 12 -4 9 -10z"/>
<path d="M571 4086 c-10 -11 -9 -14 1 -12 14 2 23 15 15 22 -2 2 -10 -2 -16
-10z"/>
<path d="M675 3991 c-3 -5 -2 -12 3 -15 5 -3 9 1 9 9 0 17 -3 19 -12 6z"/>
<path d="M1760 4756 c7 -7 13 -7 20 0 6 6 3 10 -10 10 -13 0 -16 -4 -10 -10z"/>
<path d="M1661 4714 c0 -11 3 -14 6 -6 3 7 2 16 -1 19 -3 4 -6 -2 -5 -13z"/>
<path d="M1435 4610 c-3 -5 -1 -10 4 -10 6 0 11 5 11 10 0 6 -2 10 -4 10 -3 0
-8 -4 -11 -10z"/>
<path d="M995 4320 c-3 -5 -1 -10 4 -10 6 0 11 5 11 10 0 6 -2 10 -4 10 -3 0
-8 -4 -11 -10z"/>
<path d="M110 3990 c0 -5 5 -10 11 -10 5 0 7 5 4 10 -3 6 -8 10 -11 10 -2 0
-4 -4 -4 -10z"/>
<path d="M140 3950 c-8 -5 -10 -10 -5 -10 6 0 17 5 25 10 8 5 11 10 5 10 -5 0
-17 -5 -25 -10z"/>
<path d="M127 3639 c7 -7 15 -10 18 -7 3 3 -2 9 -12 12 -14 6 -15 5 -6 -5z"/>
<path d="M129 3573 c0 -5 -2 -18 -3 -31 -2 -13 2 -26 8 -29 6 -3 8 -3 4 2 -4
4 -3 14 3 22 9 10 8 13 -1 13 -10 0 -10 3 0 15 9 10 9 15 1 15 -6 0 -11 -3
-12 -7z"/>
<path d="M4825 3470 c-3 -5 -1 -10 4 -10 6 0 11 5 11 10 0 6 -2 10 -4 10 -3 0
-8 -4 -11 -10z"/>
<path d="M100 3256 c0 -2 7 -7 16 -10 8 -3 12 -2 9 4 -6 10 -25 14 -25 6z"/>
<path d="M110 3040 c0 -5 5 -10 10 -10 6 0 10 5 10 10 0 6 -4 10 -10 10 -5 0
-10 -4 -10 -10z"/>
<path d="M166 2558 c3 -5 10 -6 15 -3 13 9 11 12 -6 12 -8 0 -12 -4 -9 -9z"/>
<path d="M181 2493 c-1 -17 19 -27 31 -15 6 6 6 12 -3 17 -8 5 -10 4 -5 -3 4
-7 3 -12 -3 -12 -5 0 -12 6 -14 13 -4 9 -6 9 -6 0z"/>
<path d="M170 2466 c0 -3 9 -10 20 -16 11 -6 20 -8 20 -6 0 3 -9 10 -20 16
-11 6 -20 8 -20 6z"/>
<path d="M189 2412 c4 -10 6 -23 4 -29 -3 -7 0 -13 6 -13 5 0 8 12 5 26 -3 19
-1 24 8 18 7 -4 9 -3 5 1 -4 5 -14 10 -22 11 -11 2 -12 -2 -6 -14z"/>
<path d="M220 2279 c0 -5 5 -7 10 -4 6 3 10 8 10 11 0 2 -4 4 -10 4 -5 0 -10
-5 -10 -11z"/>
<path d="M4855 2140 c3 -5 8 -10 11 -10 2 0 4 5 4 10 0 6 -5 10 -11 10 -5 0
-7 -4 -4 -10z"/>
<path d="M225 2110 c-3 -5 0 -7 8 -4 11 4 13 -2 10 -23 -5 -27 -5 -27 12 -11
15 14 16 20 5 32 -14 18 -26 20 -35 6z"/>
<path d="M236 2017 c3 -10 9 -15 12 -12 3 3 0 11 -7 18 -10 9 -11 8 -5 -6z"/>
<path d="M296 1911 c-4 -5 -2 -12 3 -15 5 -4 12 -2 15 3 4 5 2 12 -3 15 -5 4
-12 2 -15 -3z"/>
<path d="M276 1818 c3 -5 10 -6 15 -3 13 9 11 12 -6 12 -8 0 -12 -4 -9 -9z"/>
<path d="M304 1808 c-4 -6 -2 -14 4 -16 7 -2 10 -7 7 -12 -3 -4 2 -13 9 -19
11 -10 14 -9 12 2 -1 8 -7 21 -14 29 -6 8 -9 18 -5 21 3 4 4 7 0 7 -3 0 -9 -5
-13 -12z"/>
<path d="M4737 1755 c-4 -8 -3 -16 1 -19 4 -3 9 4 9 15 2 23 -3 25 -10 4z"/>
<path d="M350 1722 c0 -6 -8 -9 -17 -6 -15 5 -16 4 -3 -5 16 -11 40 3 27 16
-4 3 -7 1 -7 -5z"/>
<path d="M4671 1564 c0 -11 3 -14 6 -6 3 7 2 16 -1 19 -3 4 -6 -2 -5 -13z"/>
<path d="M455 1420 c-3 -5 -1 -10 4 -10 6 0 11 5 11 10 0 6 -2 10 -4 10 -3 0
-8 -4 -11 -10z"/>
<path d="M481 1425 c-1 -5 3 -17 9 -25 6 -9 5 -17 -3 -22 -9 -6 -9 -8 0 -8 19
0 22 14 7 40 -7 14 -13 21 -13 15z"/>
<path d="M4496 1233 c-6 -14 -5 -15 5 -6 7 7 10 15 7 18 -3 3 -9 -2 -12 -12z"/>
<path d="M694 1078 c0 -10 3 -18 7 -18 4 0 9 8 11 18 3 10 0 19 -6 19 -7 0
-12 -9 -12 -19z"/>
<path d="M4360 1095 c0 -5 5 -17 10 -25 5 -8 10 -10 10 -5 0 6 -5 17 -10 25
-5 8 -10 11 -10 5z"/>
<path d="M737 1073 c-3 -5 -5 -21 -5 -37 0 -19 3 -24 9 -15 7 12 9 11 10 -1 1
-8 1 -19 0 -23 -1 -5 3 -5 9 -2 8 5 6 14 -4 30 -10 15 -11 26 -4 33 6 6 6 12
0 16 -6 3 -13 3 -15 -1z"/>
<path d="M4225 930 c-3 -6 1 -7 9 -4 18 7 21 14 7 14 -6 0 -13 -4 -16 -10z"/>
<path d="M1015 759 c-4 -6 -5 -12 -2 -15 2 -3 7 2 10 11 7 17 1 20 -8 4z"/>
<path d="M4010 700 c0 -5 5 -10 11 -10 5 0 7 5 4 10 -3 6 -8 10 -11 10 -2 0
-4 -4 -4 -10z"/>
<path d="M3940 678 c-10 -21 -10 -21 3 -6 8 10 18 14 22 10 5 -4 5 -1 1 6 -10
17 -14 15 -26 -10z"/>
<path d="M1140 651 c-7 -15 -7 -22 2 -27 7 -4 10 -4 6 1 -4 4 -3 16 3 26 5 11
7 19 5 19 -3 0 -10 -9 -16 -19z"/>
<path d="M1230 576 c0 -2 7 -9 15 -16 9 -7 15 -8 15 -2 0 5 -7 12 -15 16 -8 3
-15 4 -15 2z"/>
<path d="M3635 490 c-3 -5 -5 -10 -3 -11 33 -8 38 -7 27 7 -14 17 -16 17 -24
4z"/>
<path d="M4295 471 c-3 -5 -2 -12 3 -15 5 -3 9 1 9 9 0 17 -3 19 -12 6z"/>
<path d="M1475 440 c-3 -5 -1 -10 4 -10 6 0 11 5 11 10 0 6 -2 10 -4 10 -3 0
-8 -4 -11 -10z"/>
<path d="M1516 402 c-3 -5 1 -9 9 -9 8 0 15 4 15 9 0 4 -4 8 -9 8 -6 0 -12 -4
-15 -8z"/>
<path d="M3425 360 c-3 -6 1 -7 9 -4 18 7 21 14 7 14 -6 0 -13 -4 -16 -10z"/>
<path d="M1741 332 c8 -12 19 -20 26 -18 6 3 14 2 17 -2 14 -14 34 -10 28 6
-4 11 -7 12 -10 3 -3 -8 -8 -7 -18 6 -10 13 -13 14 -14 4 0 -11 -5 -9 -21 5
-22 19 -22 19 -8 -4z"/>
<path d="M3340 319 c0 -5 5 -7 10 -4 6 3 10 8 10 11 0 2 -4 4 -10 4 -5 0 -10
-5 -10 -11z"/>
<path d="M3176 285 c4 -8 8 -15 10 -15 2 0 4 7 4 15 0 8 -4 15 -10 15 -5 0 -7
-7 -4 -15z"/>
<path d="M1805 280 c-3 -6 1 -7 9 -4 18 7 21 14 7 14 -6 0 -13 -4 -16 -10z"/>
<path d="M3152 271 c-11 -7 -11 -9 0 -14 9 -3 15 1 15 9 0 8 -1 14 -1 14 -1 0
-7 -4 -14 -9z"/>
<path d="M2265 211 c3 -2 -1 -11 -8 -20 -10 -14 -10 -14 4 -4 9 7 18 10 21 7
3 -2 8 1 11 8 3 9 -2 14 -14 14 -10 0 -16 -2 -14 -5z"/>
<path d="M2603 201 c-19 -16 -20 -20 -7 -25 10 -4 13 -2 8 6 -5 7 -2 9 7 6 10
-4 15 1 15 13 0 11 0 19 -1 19 0 -1 -10 -9 -22 -19z"/>
<path d="M2557 203 c-4 -3 -7 -11 -7 -17 0 -6 5 -5 12 2 6 6 9 14 7 17 -3 3
-9 2 -12 -2z"/>
</g>
</svg>
